# xmcd
#
# Track frame offsets:
#	150
#	13970
#	28722
#	43327
#	59227
#	73241
#	92509
#	104577
#	115618
#	128830
#	144499
#	157031
#	170949
#	188742
#	202330
#	216780
#	229438
#	246618
#	264589
#
# Disc length: 3688 seconds
#
# Revision: 0
# Processed by: cddbd v1.5.2PL0 Copyright (c) Steve Scherf et al.
# Submitted via: EasyCDDAExtractor 10.5.1.1
#
DISCID=390e6613
DTITLE=Dolly Parton - The Very Best Of: Volume 2
DYEAR=2007
DGENRE=Country
TTITLE0=Joshua
TTITLE1=The Seeker
TTITLE2=Harper Valley PTA
TTITLE3=Heartbreaker
TTITLE4=Two Doors Down
TTITLE5=Boulder To Birmingham
TTITLE6=Put It Off Until Tomorrow (With Tammy Wynette and Loretta Lynn)
TTITLE7=All I Can Do
TTITLE8=(Your Love Has Lifted Me) Higher and Higher
TTITLE9=Rockin' Years (Duet With Ricky Van Shelton)
TTITLE10=In The Ghetto
TTITLE11=Just Because I'm A Woman
TTITLE12=Yellow Roses
TTITLE13=I Really Don't Want To Know (Duet With Willie Nelson)
TTITLE14=Eagle When She Flies
TTITLE15=Please Don't Stop Loving Me (Duet With Porter Wagoner)
TTITLE16=Down From Dover
TTITLE17=Where Beauty Lives In Memory
TTITLE18=To Daddy
EXTD=
EXTT0=
EXTT1=
EXTT2=
EXTT3=
EXTT4=
EXTT5=
EXTT6=
EXTT7=
EXTT8=
EXTT9=
EXTT10=
EXTT11=
EXTT12=
EXTT13=
EXTT14=
EXTT15=
EXTT16=
EXTT17=
EXTT18=
PLAYORDER=
